<svg xmlns="http://www.w3.org/2000/svg" width="32" height="32" fill="none" viewBox="0 0 32 32">
  <path fill="#B6B1AA" d="m7.64 4.985 1.34-.684c1.256-.641 2.793-.23 3.592.962l1.59 2.372a2.898 2.898 0 0 1-.1 3.375l-2.089 2.716c.396 1.337 1.11 2.596 2.144 3.777a11.385 11.385 0 0 0 3.576 2.766l2.827-1.488a2.781 2.781 0 0 1 3.255.503l2.03 2.01a2.903 2.903 0 0 1 .317 3.757l-.893 1.23a4.14 4.14 0 0 1-3.846 1.69c-3.522-.419-7.127-2.86-10.813-7.326-3.692-4.474-5.431-8.513-5.22-12.117a4.246 4.246 0 0 1 2.292-3.543"/>
</svg>
