<svg xmlns="http://www.w3.org/2000/svg" width="16" height="17" fill="none" viewBox="0 0 16 17">
  <path fill="#2B2A28" d="M11.54 8.908c-.014-1.645 1.345-2.435 1.406-2.474-.765-1.119-1.954-1.271-2.378-1.29-1.011-.102-1.975.597-2.489.597-.513 0-1.305-.581-2.145-.565-1.104.017-2.12.641-2.69 1.63-1.146 1.987-.293 4.934.825 6.549.546.789 1.196 1.677 2.052 1.645.825-.033 1.135-.534 2.13-.534.995 0 1.276.534 2.145.517.886-.018 1.448-.806 1.99-1.598.626-.916.884-1.803.9-1.85-.02-.007-1.727-.661-1.745-2.627ZM9.905 4.076c.454-.55.76-1.314.676-2.076-.654.027-1.446.436-1.915.986-.42.486-.792 1.264-.689 2.01.728.058 1.474-.371 1.928-.92"/>
</svg>
