<svg xmlns="http://www.w3.org/2000/svg" width="32" height="32" fill="none" viewBox="0 0 32 32">
  <path fill="#C9885C" fill-rule="evenodd" d="M22.4 7.511h2.133a2.133 2.133 0 0 1 2.134 2.133v14.223A2.134 2.134 0 0 1 24.533 26H7.467a2.134 2.134 0 0 1-2.134-2.133V9.644a2.133 2.133 0 0 1 2.134-2.133H9.6V4.667h1.422V7.51h9.956V4.667H22.4V7.51Zm-1.91 7.608a.667.667 0 0 0-.98-.905l-4.461 4.833-2.587-2.49a.667.667 0 1 0-.924.96l3.076 2.963a.667.667 0 0 0 .953-.028l4.923-5.333Z" clip-rule="evenodd"/>
</svg>
