<svg xmlns="http://www.w3.org/2000/svg" width="32" height="32" fill="none" viewBox="0 0 32 32">
  <path fill="#C9885C" d="M16 16c-1.581 0-2.935-.563-4.06-1.69-1.127-1.125-1.69-2.479-1.69-4.06 0-1.581.563-2.935 1.69-4.06C13.064 5.062 14.418 4.5 16 4.5c1.581 0 2.935.563 4.06 1.69 1.127 1.125 1.69 2.479 1.69 4.06 0 1.581-.563 2.935-1.69 4.06C18.936 15.438 17.582 16 16 16ZM4.5 27.5v-4.025c0-.815.21-1.563.63-2.245a4.212 4.212 0 0 1 1.67-1.564 21.315 21.315 0 0 1 4.528-1.67 19.86 19.86 0 0 1 9.344 0c1.533.372 3.043.929 4.528 1.67.695.359 1.252.88 1.672 1.564.42.683.629 1.431.628 2.245V27.5h-23Z"/>
</svg>
