<svg xmlns="http://www.w3.org/2000/svg" width="32" height="32" fill="none" viewBox="0 0 32 32">
  <path fill="#C9885C" d="M5.333 24.743V13.086c0-.41.095-.799.284-1.166.19-.367.45-.67.783-.907l8-5.828a2.62 2.62 0 0 1 1.6-.518c.6 0 1.133.172 1.6.518l8 5.828c.333.238.595.54.784.907.19.367.284.756.283 1.166v11.657c0 .712-.262 1.322-.784 1.83a2.6 2.6 0 0 1-1.883.76h-4c-.378 0-.694-.124-.95-.373a1.241 1.241 0 0 1-.383-.922v-6.476a1.23 1.23 0 0 0-.384-.922 1.316 1.316 0 0 0-.95-.373h-2.666c-.378 0-.695.124-.95.373a1.241 1.241 0 0 0-.384.922v6.476c0 .367-.128.675-.384.924a1.305 1.305 0 0 1-.949.371H8c-.733 0-1.36-.253-1.883-.76-.521-.507-.783-1.117-.784-1.83Z"/>
</svg>
