<svg xmlns="http://www.w3.org/2000/svg" width="24" height="24" fill="none" viewBox="0 0 24 24">
  <mask id="a" width="20" height="20" x="2" y="2" maskUnits="userSpaceOnUse" style="mask-type:luminance">
    <path fill="#fff" stroke="#fff" stroke-linejoin="round" stroke-width="1.8" d="M17.709 8.027a6.931 6.931 0 0 1 1.138 2.746H21v2.454h-2.153a6.928 6.928 0 0 1-1.138 2.746l1.523 1.523-1.736 1.736-1.523-1.523a6.928 6.928 0 0 1-2.746 1.138V21h-2.454v-2.153a6.928 6.928 0 0 1-2.746-1.138l-1.523 1.523-1.736-1.736 1.523-1.523a6.93 6.93 0 0 1-1.138-2.746H3v-2.454h2.153a6.93 6.93 0 0 1 1.138-2.746L4.768 6.504l1.736-1.736 1.523 1.523a6.93 6.93 0 0 1 2.746-1.138V3h2.454v2.153a6.93 6.93 0 0 1 2.746 1.138l1.523-1.523 1.736 1.736-1.523 1.523Z"/>
    <path fill="#000" stroke="#000" stroke-linejoin="round" stroke-width="1.8" d="M12 14.25a2.25 2.25 0 1 0 0-4.5 2.25 2.25 0 0 0 0 4.5Z"/>
  </mask>
  <g mask="url(#a)">
    <path fill="#B6B1AA" d="M1.2 1.2h21.6v21.6H1.2V1.2Z"/>
  </g>
</svg>
